<svg width="24" height="24" viewBox="0 0 24 24" fill="none" xmlns="http://www.w3.org/2000/svg">
<g id="quality-2-svgrepo-com 1">
<path id="secondary" d="M21.9401 17.89C21.8889 18.0387 21.8034 18.1733 21.6905 18.2828C21.5775 18.3922 21.4404 18.4735 21.2901 18.52L18.5801 19.32L16.8901 21.59C16.798 21.716 16.6777 21.8188 16.5388 21.89C16.3998 21.9612 16.2462 21.9988 16.0901 22C15.9306 21.9981 15.7738 21.9581 15.6329 21.8833C15.492 21.8085 15.371 21.7011 15.2801 21.57L12.4001 17.46C12.2967 17.317 12.2329 17.1491 12.2154 16.9735C12.1978 16.7978 12.227 16.6207 12.3001 16.46C12.3647 16.3051 12.4673 16.1689 12.5983 16.0641C12.7294 15.9592 12.8848 15.889 13.0501 15.86C13.929 15.7067 14.762 15.3574 15.4874 14.838C16.2127 14.3187 16.8118 13.6426 17.2401 12.86C17.3226 12.7127 17.4411 12.5886 17.5845 12.4995C17.7278 12.4103 17.8915 12.3589 18.0601 12.35C18.2297 12.3419 18.3985 12.3772 18.5508 12.4524C18.703 12.5276 18.8335 12.6404 18.9301 12.78L21.8201 17C21.9081 17.1287 21.9648 17.2762 21.9856 17.4308C22.0065 17.5853 21.9909 17.7426 21.9401 17.89ZM10.9401 15.89C10.0612 15.7367 9.2282 15.3874 8.50283 14.868C7.77746 14.3487 7.17839 13.6726 6.7501 12.89C6.66686 12.743 6.54773 12.6194 6.40382 12.5309C6.25992 12.4424 6.09593 12.3918 5.92717 12.3838C5.7584 12.3758 5.59037 12.4107 5.43874 12.4852C5.28712 12.5598 5.15685 12.6715 5.0601 12.81L2.1801 17C2.08972 17.1302 2.03156 17.2799 2.01041 17.437C1.98926 17.594 2.00574 17.7538 2.05847 17.9032C2.11121 18.0526 2.1987 18.1874 2.31373 18.2964C2.42876 18.4053 2.56805 18.4854 2.7201 18.53L5.4201 19.33L7.1101 21.6C7.20219 21.726 7.32251 21.8288 7.46143 21.9C7.60035 21.9712 7.754 22.0089 7.9101 22.01C8.06962 22.0081 8.22638 21.9681 8.36729 21.8933C8.5082 21.8185 8.62917 21.7111 8.7201 21.58L11.6001 17.47C11.7035 17.327 11.7673 17.1591 11.7848 16.9835C11.8024 16.8078 11.7732 16.6307 11.7001 16.47C11.6363 16.3268 11.5397 16.2005 11.4181 16.1015C11.2965 16.0025 11.1533 15.9335 11.0001 15.9L10.9401 15.89Z" fill="#212529"/>
<path id="primary" d="M12 18C16.4183 18 20 14.4183 20 10C20 5.58172 16.4183 2 12 2C7.58172 2 4 5.58172 4 10C4 14.4183 7.58172 18 12 18Z" fill="black"/>
</g>
</svg>
