<svg width="24" height="24" viewBox="0 0 24 24" fill="none" xmlns="http://www.w3.org/2000/svg">
<g id="myspace-svgrepo-com 1">
<g id="7935ec95c421cee6d86eb22ecd126749">
<path id="Vector" d="M13.3417 3.96028C13.3417 1.78603 15.1184 0.0234375 17.3095 0.0234375C19.5007 0.0234375 21.2774 1.78603 21.2774 3.96028C21.2774 6.13509 19.5007 7.89825 17.3095 7.89825C15.1184 7.89825 13.3417 6.13509 13.3417 3.96028ZM17.3095 8.83978C15.9137 8.83978 14.6406 9.35147 13.6622 10.1918C13.0896 8.57255 11.5397 7.40939 9.71216 7.40939C8.59115 7.40939 7.57532 7.84917 6.82391 8.56027C6.44549 7.39359 5.34323 6.54858 4.04113 6.54858C2.4268 6.54858 1.11805 7.84683 1.11805 9.44916H1.1084V14.476H5.51043V18.7678H11.7095V23.9766H22.8914V14.3783C22.8914 11.3193 20.392 8.83978 17.3095 8.83978ZM9.71221 6.70294C11.357 6.70294 12.6897 5.38013 12.6897 3.74798C12.6897 2.11641 11.357 0.793594 9.71221 0.793594C8.0684 0.793594 6.73504 2.11641 6.73504 3.74798C6.73504 5.38013 8.06835 6.70294 9.71221 6.70294ZM4.04118 6.05498C5.18887 6.05498 6.11924 5.13216 6.11924 3.993C6.11924 2.85384 5.18887 1.93102 4.04118 1.93102C2.89382 1.93102 1.9634 2.85384 1.9634 3.993C1.9634 5.1322 2.89382 6.05498 4.04118 6.05498Z" fill="black"/>
</g>
</g>
</svg>
