<svg width="24" height="24" viewBox="0 0 24 24" fill="none" xmlns="http://www.w3.org/2000/svg">
<g id="ion:book">
<path id="Vector" d="M9.48 3.46868C7.78641 2.66008 5.41922 2.26399 2.25 2.24993C1.95111 2.24587 1.65809 2.33302 1.41 2.49977C1.20637 2.63741 1.03968 2.82298 0.924597 3.04015C0.809512 3.25733 0.749555 3.49946 0.750002 3.74524V17.1562C0.750002 18.0627 1.395 18.7466 2.25 18.7466C5.58141 18.7466 8.92313 19.0579 10.9247 20.9498C10.9521 20.9758 10.9865 20.9931 11.0237 20.9998C11.0608 21.0064 11.0991 21.0019 11.1338 20.9869C11.1685 20.9719 11.1979 20.9471 11.2186 20.9155C11.2393 20.8839 11.2502 20.8469 11.25 20.8091V5.00711C11.2501 4.9005 11.2273 4.79511 11.1831 4.69807C11.139 4.60103 11.0745 4.5146 10.9941 4.44461C10.5356 4.05266 10.0263 3.72439 9.48 3.46868ZM22.59 2.49836C22.3418 2.33203 22.0488 2.24536 21.75 2.24993C18.5808 2.26399 16.2136 2.65821 14.52 3.46868C13.9737 3.72392 13.4643 4.05155 13.0055 4.44274C12.9252 4.51284 12.8609 4.59931 12.8168 4.69633C12.7728 4.79335 12.75 4.89868 12.75 5.00524V20.8082C12.75 20.8445 12.7607 20.88 12.7807 20.9102C12.8008 20.9404 12.8293 20.9641 12.8628 20.9781C12.8962 20.9922 12.9331 20.9961 12.9687 20.9893C13.0044 20.9825 13.0372 20.9653 13.0631 20.9399C14.2664 19.7446 16.3781 18.7452 21.7519 18.7457C22.1497 18.7457 22.5312 18.5877 22.8125 18.3064C23.0938 18.0251 23.2519 17.6435 23.2519 17.2457V3.74571C23.2524 3.49944 23.1923 3.25682 23.0769 3.03928C22.9615 2.82174 22.7942 2.63597 22.59 2.49836Z" fill="#212529"/>
</g>
</svg>
